# xmcd CD database file
#
# Track frame offsets:
#	150
#	11620
#	29343
#	45821
#	62246
#	77586
#	102063
#	116895
#	134378
#	145298
#
# Disc length: 2362 seconds
#
# Revision: 0
# Processed by: cddbd v1.5.2PL0 Copyright (c) Steve Scherf et al.
# Submitted via: CDex 1.70beta2
#
DISCID=7e09380a
DTITLE=Yomira John - Asi Son... Pa'los Pelao
DYEAR=2003
DGENRE=Salsa
TTITLE0=Bolero
TTITLE1=El Ritmo Que Hoy Suena Mejor
TTITLE2=No Volvreré A Enamorarme
TTITLE3=No Me Acostumbro
TTITLE4=Pedacito De Mi Vida
TTITLE5=El Baile Del Suavito
TTITLE6=Niebla Del Riachuelo
TTITLE7=Para Volver A Amar
TTITLE8=Drume Negrita
TTITLE9=Descarga De La Loma
EXTD=YEAR: 2003
EXTT0=
EXTT1=
EXTT2=
EXTT3=
EXTT4=
EXTT5=
EXTT6=
EXTT7=
EXTT8=
EXTT9=
PLAYORDER=
